HIERARCHY
ROOT Hips
{
    OFFSET 0.000000 0.000000 0.000000
    CHANNELS 6 Xposition Yposition Zposition Zrotation Xrotation Yrotation
    JOINT Spine
    {
        OFFSET -0.000000 9.701283 -0.000018
        CHANNELS 3 Zrotation Xrotation Yrotation
        JOINT Spine1
        {
            OFFSET 0.000000 22.755707 -0.000008
            CHANNELS 3 Zrotation Xrotation Yrotation
            JOINT Neck
            {
                OFFSET -0.000003 20.853481 -0.000011
                CHANNELS 3 Zrotation Xrotation Yrotation
                JOINT Head
                {
                    OFFSET -0.000002 12.839990 1.902205
                    CHANNELS 3 Zrotation Xrotation Yrotation
                    End Site
                    {
                        OFFSET 0.000000 19.022141 0.000000
                    }
                }
            }
            JOINT LeftShoulder
            {
                OFFSET 3.797835 16.121201 -0.677276
                CHANNELS 3 Zrotation Xrotation Yrotation
                JOINT LeftArm
                {
                    OFFSET 11.576603 -0.000001 -0.000004
                    CHANNELS 3 Zrotation Xrotation Yrotation
                    JOINT LeftForeArm
                    {
                        OFFSET 29.906404 0.000000 0.000010
                        CHANNELS 3 Zrotation Xrotation Yrotation
                        JOINT LeftHand
                        {
                            OFFSET 24.318304 0.000009 0.000021
                            CHANNELS 3 Zrotation Xrotation Yrotation
                            JOINT LeftHandThumb1
                            {
                                OFFSET 1.987811 -2.258875 3.162444
                                CHANNELS 3 Zrotation Xrotation Yrotation
                                JOINT LeftHandThumb2
                                {
                                    OFFSET 3.002281 -0.000009 -0.000001
                                    CHANNELS 3 Zrotation Xrotation Yrotation
                                    JOINT LeftHandThumb3
                                    {
                                        OFFSET 2.566092 0.000006 0.000003
                                        CHANNELS 3 Zrotation Xrotation Yrotation
                                        End Site
                                        {
                                            OFFSET 2.440626 0.000000 0.000000
                                        }
                                    }
                                }
                            }
                            JOINT LeftHandIndex1
                            {
                                OFFSET 8.131963 0.000005 3.162438
                                CHANNELS 3 Zrotation Xrotation Yrotation
                                JOINT LeftHandIndex2
                                {
                                    OFFSET 4.517766 0.000009 0.000021
                                    CHANNELS 3 Zrotation Xrotation Yrotation
                                    JOINT LeftHandIndex3
                                    {
                                        OFFSET 2.258877 -0.000002 -0.000012
                                        CHANNELS 3 Zrotation Xrotation Yrotation
                                        End Site
                                        {
                                            OFFSET 2.148437 0.000000 0.000000
                                        }
                                    }
                                }
                            }
                            JOINT LeftHandMiddle1
                            {
                                OFFSET 8.131968 0.000007 1.048142
                                CHANNELS 3 Zrotation Xrotation Yrotation
                                JOINT LeftHandMiddle2
                                {
                                    OFFSET 4.969536 0.000008 0.000020
                                    CHANNELS 3 Zrotation Xrotation Yrotation
                                    JOINT LeftHandMiddle3
                                    {
                                        OFFSET 2.710648 -0.000006 -0.000012
                                        CHANNELS 3 Zrotation Xrotation Yrotation
                                        End Site
                                        {
                                            OFFSET 2.578118 0.000000 0.000000
                                        }
                                    }
                                }
                            }
                            JOINT LeftHandRing1
                            {
                                OFFSET 7.680190 -0.000006 -1.048131
                                CHANNELS 3 Zrotation Xrotation Yrotation
                                JOINT LeftHandRing2
                                {
                                    OFFSET 4.517766 0.000004 0.000022
                                    CHANNELS 3 Zrotation Xrotation Yrotation
                                    JOINT LeftHandRing3
                                    {
                                        OFFSET 2.258877 -0.000001 -0.000012
                                        CHANNELS 3 Zrotation Xrotation Yrotation
                                        End Site
                                        {
                                            OFFSET 2.148437 0.000000 0.000000
                                        }
                                    }
                                }
                            }
                            JOINT LeftHandPinky1
                            {
                                OFFSET 7.228415 0.000003 -3.162425
                                CHANNELS 3 Zrotation Xrotation Yrotation
                                JOINT LeftHandPinky2
                                {
                                    OFFSET 3.614197 -0.000005 -0.000017
                                    CHANNELS 3 Zrotation Xrotation Yrotation
                                    JOINT LeftHandPinky3
                                    {
                                        OFFSET 1.807099 -0.000003 -0.000008
                                        CHANNELS 3 Zrotation Xrotation Yrotation
                                        End Site
                                        {
                                            OFFSET 1.718745 0.000000 0.000000
                                        }
                                    }
                                }
                            }
                        }
                    }
                }
            }
            JOINT RightShoulder
            {
                OFFSET -3.797832 16.121197 -0.677301
                CHANNELS 3 Zrotation Xrotation Yrotation
                JOINT RightArm
                {
                    OFFSET -11.576597 0.000000 0.000019
                    CHANNELS 3 Zrotation Xrotation Yrotation
                    JOINT RightForeArm
                    {
                        OFFSET -29.906410 0.000003 -0.000011
                        CHANNELS 3 Zrotation Xrotation Yrotation
                        JOINT RightHand
                        {
                            OFFSET -24.318323 -0.000004 0.000013
                            CHANNELS 3 Zrotation Xrotation Yrotation
                            JOINT RightHandThumb1
                            {
                                OFFSET -1.987809 -2.258876 3.162430
                                CHANNELS 3 Zrotation Xrotation Yrotation
                                JOINT RightHandThumb2
                                {
                                    OFFSET -3.002287 -0.000001 -0.000003
                                    CHANNELS 3 Zrotation Xrotation Yrotation
                                    JOINT RightHandThumb3
                                    {
                                        OFFSET -2.566096 -0.000002 0.000018
                                        CHANNELS 3 Zrotation Xrotation Yrotation
                                        End Site
                                        {
                                            OFFSET -2.440626 0.000000 0.000000
                                        }
                                    }
                                }
                            }
                            JOINT RightHandIndex1
                            {
                                OFFSET -8.131954 0.000017 3.162421
                                CHANNELS 3 Zrotation Xrotation Yrotation
                                JOINT RightHandIndex2
                                {
                                    OFFSET -4.517753 0.000013 -0.000018
                                    CHANNELS 3 Zrotation Xrotation Yrotation
                                    JOINT RightHandIndex3
                                    {
                                        OFFSET -2.258884 -0.000008 0.000008
                                        CHANNELS 3 Zrotation Xrotation Yrotation
                                        End Site
                                        {
                                            OFFSET -2.148437 0.000000 0.000000
                                        }
                                    }
                                }
                            }
                            JOINT RightHandMiddle1
                            {
                                OFFSET -8.131962 -0.000003 1.048123
                                CHANNELS 3 Zrotation Xrotation Yrotation
                                JOINT RightHandMiddle2
                                {
                                    OFFSET -4.969530 0.000001 0.000001
                                    CHANNELS 3 Zrotation Xrotation Yrotation
                                    JOINT RightHandMiddle3
                                    {
                                        OFFSET -2.710646 0.000010 -0.000006
                                        CHANNELS 3 Zrotation Xrotation Yrotation
                                        End Site
                                        {
                                            OFFSET -2.578118 0.000000 0.000000
                                        }
                                    }
                                }
                            }
                            JOINT RightHandRing1
                            {
                                OFFSET -7.680185 0.000006 -1.048131
                                CHANNELS 3 Zrotation Xrotation Yrotation
                                JOINT RightHandRing2
                                {
                                    OFFSET -4.517752 0.000016 -0.000015
                                    CHANNELS 3 Zrotation Xrotation Yrotation
                                    JOINT RightHandRing3
                                    {
                                        OFFSET -2.258884 -0.000009 0.000007
                                        CHANNELS 3 Zrotation Xrotation Yrotation
                                        End Site
                                        {
                                            OFFSET -2.148437 0.000000 0.000000
                                        }
                                    }
                                }
                            }
                            JOINT RightHandPinky1
                            {
                                OFFSET -7.228407 0.000007 -3.162434
                                CHANNELS 3 Zrotation Xrotation Yrotation
                                JOINT RightHandPinky2
                                {
                                    OFFSET -3.614193 0.000010 -0.000013
                                    CHANNELS 3 Zrotation Xrotation Yrotation
                                    JOINT RightHandPinky3
                                    {
                                        OFFSET -1.807097 0.000005 -0.000006
                                        CHANNELS 3 Zrotation Xrotation Yrotation
                                        End Site
                                        {
                                            OFFSET -1.718745 0.000000 0.000000
                                        }
                                    }
                                }
                            }
                        }
                    }
                }
            }
        }
    }
    JOINT LeftUpLeg
    {
        OFFSET 9.511073 -0.000001 0.000016
        CHANNELS 3 Zrotation Xrotation Yrotation
        JOINT LeftLeg
        {
            OFFSET 0.000000 -43.875591 0.000003
            CHANNELS 3 Zrotation Xrotation Yrotation
            JOINT LeftFoot
            {
                OFFSET 0.000001 -35.354198 0.000023
                CHANNELS 3 Zrotation Xrotation Yrotation
                JOINT LeftToeBase
                {
                    OFFSET 0.000002 -6.182190 14.266592
                    CHANNELS 3 Zrotation Xrotation Yrotation
                    End Site
                    {
                        OFFSET 0.000000 0.000000 3.804428
                    }
                }
            }
        }
    }
    JOINT RightUpLeg
    {
        OFFSET -9.511073 0.000001 -0.000016
        CHANNELS 3 Zrotation Xrotation Yrotation
        JOINT RightLeg
        {
            OFFSET -0.000006 -43.875599 -0.000023
            CHANNELS 3 Zrotation Xrotation Yrotation
            JOINT RightFoot
            {
                OFFSET 0.000001 -35.354198 0.000011
                CHANNELS 3 Zrotation Xrotation Yrotation
                JOINT RightToeBase
                {
                    OFFSET 0.000004 -6.182189 14.266604
                    CHANNELS 3 Zrotation Xrotation Yrotation
                    End Site
                    {
                        OFFSET 0.000000 0.000000 3.804428
                    }
                }
            }
        }
    }
}
MOTION
Frames:    4
Frame Time:    0.002778
-26.048744    89.899605    628.890564    -3.307523    -2.406233    158.645340    0.440928    6.540180    -8.667434    2.204627    6.535575    -8.868262    4.860281    6.759163    -4.739219    4.860281    6.759168    -4.739216    5.334679    -1.315428    -1.032814    -60.784695    18.783268    -24.714882    -44.953049    9.076211    -75.154549    -2.810941    -0.820760    7.793249    47.448196    38.866394    -34.355045    -35.000023    0.000001    0.000001    -0.000000    0.000000    -0.000000    -0.000002    9.999993    0.000000    -0.000000    0.000000    -0.000000    -0.000000    0.000000    -0.000000    -0.000000    0.000000    -0.000000    -0.000000    0.000000    -0.000000    -0.000000    0.000000    -0.000000    -0.000000    0.000000    -0.000000    -0.000000    0.000000    -0.000000    -0.000000    0.000000    -0.000000    -0.000004    -9.999978    -0.000005    -0.000000    0.000000    -0.000000    -0.000000    0.000000    -0.000000    -3.702939    -0.663030    -0.110574    57.582546    -27.235151    -0.129796    28.903496    11.843713    56.677082    -58.699650    19.107693    -11.481588    -47.448196    38.866394    34.355042    35.000015    -0.000001    -0.000002    -0.000000    0.000000    -0.000000    0.000000    9.999995    -0.000001    -0.000000    0.000000    -0.000000    -0.000000    0.000000    -0.000000    -0.000000    0.000000    -0.000000    -0.000000    0.000000    -0.000000    -0.000000    0.000000    -0.000000    -0.000000    0.000000    -0.000000    -0.000000    0.000000    -0.000000    -0.000000    0.000000    -0.000000    0.000001    -9.999999    0.000001    -0.000000    0.000000    -0.000000    -0.000000    0.000000    -0.000000    9.573090    -15.450232    0.842534    0.000001    39.321915    0.000000    -9.302943    -24.709194    10.596696    0.000000    -0.455196    0.000000    -19.393293    -27.862730    -3.430500    -0.000001    42.881470    -0.000003    13.812267    -10.877090    -6.604420    -0.000000    -3.929965    0.000002    
-26.088820    89.861389    628.892517    -3.326893    -2.418596    158.412964    0.442817    6.602653    -8.792550    2.214068    6.597966    -8.996159    4.866362    6.844091    -4.626983    4.866361    6.844089    -4.626979    5.359063    -1.295481    -1.044878    -60.735523    18.695822    -24.764856    -44.968811    9.178906    -75.267464    -2.773821    -0.816962    7.812130    47.448196    38.866394    -34.355034    -35.000015    0.000009    -0.000002    -0.000000    0.000000    -0.000000    -0.000003    9.999988    0.000002    -0.000000    0.000000    -0.000000    -0.000000    0.000000    -0.000000    -0.000000    0.000000    -0.000000    -0.000000    0.000000    -0.000000    -0.000000    0.000000    -0.000000    -0.000000    0.000000    -0.000000    -0.000000    0.000000    -0.000000    -0.000000    0.000000    -0.000000    0.000002    -9.999993    0.000004    -0.000000    0.000000    -0.000000    -0.000000    0.000000    -0.000000    -3.681825    -0.617710    -0.118515    57.620522    -27.282919    -0.366665    28.814901    11.959187    56.682541    -58.805130    19.230467    -11.501881    -47.448200    38.866394    34.355042    35.000019    0.000000    -0.000001    -0.000000    0.000000    -0.000000    -0.000000    9.999994    -0.000001    -0.000000    0.000000    -0.000000    -0.000000    0.000000    -0.000000    -0.000000    0.000000    -0.000000    -0.000000    0.000000    -0.000000    -0.000000    0.000000    -0.000000    -0.000000    0.000000    -0.000000    -0.000000    0.000000    -0.000000    -0.000000    0.000000    -0.000000    0.000000    -9.999996    -0.000002    -0.000000    0.000000    -0.000000    -0.000000    0.000000    -0.000000    9.570290    -15.503172    0.947045    0.000000    39.520748    0.000001    -9.330972    -24.833303    10.683557    0.000000    -0.446953    0.000001    -19.405346    -28.035738    -3.426590    -0.000001    42.965668    -0.000002    13.758272    -10.828098    -6.429103    0.000000    -3.935100    0.000001    
-26.131599    89.820267    628.892090    -3.347931    -2.430798    158.177078    0.445764    6.664832    -8.919027    2.228806    6.660034    -9.125913    4.867990    6.936091    -4.533276    4.867992    6.936089    -4.533279    5.377618    -1.281567    -1.045112    -60.701912    18.586958    -24.800550    -45.022533    9.276217    -75.409210    -2.731323    -0.812831    7.829940    47.448196    38.866394    -34.355042    -35.000023    -0.000001    0.000000    -0.000000    0.000000    -0.000000    0.000002    9.999999    0.000001    -0.000000    0.000000    -0.000000    -0.000000    0.000000    -0.000000    -0.000000    0.000000    -0.000000    -0.000000    0.000000    -0.000000    -0.000000    0.000000    -0.000000    -0.000000    0.000000    -0.000000    -0.000000    0.000000    -0.000000    -0.000000    0.000000    -0.000000    -0.000003    -9.999991    0.000002    -0.000000    0.000000    -0.000000    -0.000000    0.000000    -0.000000    -3.660091    -0.583510    -0.120417    57.651497    -27.337456    -0.601633    28.709471    12.081457    56.691090    -58.927845    19.380791    -11.529000    -47.448204    38.866394    34.355042    35.000023    -0.000002    -0.000001    -0.000000    0.000000    -0.000000    0.000000    9.999990    0.000004    -0.000000    0.000000    -0.000000    -0.000000    0.000000    -0.000000    -0.000000    0.000000    -0.000000    -0.000000    0.000000    -0.000000    -0.000000    0.000000    -0.000000    -0.000000    0.000000    -0.000000    -0.000000    0.000000    -0.000000    -0.000000    0.000000    -0.000000    -0.000002    -9.999987    0.000000    -0.000000    0.000000    -0.000000    -0.000000    0.000000    -0.000000    9.564489    -15.557693    1.052617    -0.000002    39.726513    0.000003    -9.355042    -24.964262    10.771822    -0.000000    -0.441662    -0.000001    -19.420773    -28.211464    -3.421673    -0.000000    43.054745    -0.000003    13.703277    -10.785404    -6.249912    -0.000000    -3.942778    -0.000003    
-26.176449    89.775764    628.890686    -3.370243    -2.445786    157.944229    0.449044    6.724702    -9.046769    2.245205    6.719795    -9.257042    4.872994    7.025156    -4.425008    4.872994    7.025152    -4.425004    5.397798    -1.262625    -1.055199    -60.659676    18.489542    -24.837366    -45.094154    9.351712    -75.510239    -2.672907    -0.807766    7.872701    47.448223    38.866402    -34.355064    -35.000023    0.000000    0.000000    -0.000000    0.000000    -0.000000    0.000002    10.000001    -0.000002    -0.000000    0.000000    -0.000000    -0.000000    0.000000    -0.000000    -0.000000    0.000000    -0.000000    -0.000000    0.000000    -0.000000    -0.000000    0.000000    -0.000000    -0.000000    0.000000    -0.000000    -0.000000    0.000000    -0.000000    -0.000000    0.000000    -0.000000    0.000009    -9.999963    0.000004    -0.000000    0.000000    -0.000000    -0.000000    0.000000    -0.000000    -3.643937    -0.538824    -0.126146    57.682949    -27.394793    -0.838486    28.610119    12.209517    56.719757    -59.044979    19.518787    -11.551260    -47.448219    38.866398    34.355045    35.000023    0.000001    0.000002    -0.000000    0.000000    -0.000000    -0.000002    9.999993    -0.000009    -0.000000    0.000000    -0.000000    -0.000000    0.000000    -0.000000    -0.000000    0.000000    -0.000000    -0.000000    0.000000    -0.000000    -0.000000    0.000000    -0.000000    -0.000000    0.000000    -0.000000    -0.000000    0.000000    -0.000000    -0.000000    0.000000    -0.000000    -0.000000    -9.999991    0.000002    -0.000000    0.000000    -0.000000    -0.000000    0.000000    -0.000000    9.557563    -15.617923    1.157615    0.000003    39.940010    -0.000002    -9.382684    -25.110802    10.854583    -0.000001    -0.435066    0.000000    -19.441700    -28.391335    -3.425259    -0.000001    43.151470    0.000002    13.650905    -10.748396    -6.065747    -0.000000    -3.952988    0.000003    
